<svg width="27" height="27" viewBox="0 0 27 27" fill="none" xmlns="http://www.w3.org/2000/svg">
<path d="M20.6182 8.90934H18.2638C18.129 8.90962 17.9957 8.88131 17.8726 8.82629C17.7496 8.77126 17.6396 8.69076 17.5499 8.5901L16.5922 7.51709C16.5219 7.43772 16.4356 7.37418 16.3389 7.33067C16.2422 7.28715 16.1374 7.26465 16.0313 7.26465C15.9253 7.26465 15.8205 7.28715 15.7238 7.33067C15.6271 7.37418 15.5407 7.43772 15.4704 7.51709L14.6457 8.43491C14.5124 8.58403 14.349 8.70335 14.1665 8.7851C13.9839 8.86684 13.7861 8.90918 13.586 8.90934H0.727655C0.352879 9.97025 0.113043 11.0741 0.0137939 12.1949H12.1716C12.2774 12.1951 12.3822 12.1739 12.4797 12.1328C12.5772 12.0917 12.6654 12.0314 12.7391 11.9554L13.8742 10.776C13.9439 10.7027 14.0278 10.6444 14.1208 10.6047C14.2139 10.5651 14.314 10.5449 14.4152 10.5455H14.4595C14.5659 10.5455 14.6711 10.568 14.7681 10.6115C14.8652 10.6551 14.9519 10.7187 15.0226 10.7982L15.9759 11.8712C16.0655 11.9722 16.1754 12.0533 16.2984 12.109C16.4214 12.1648 16.5547 12.194 16.6898 12.1949H26.6173C26.5224 11.0747 26.287 9.97084 25.9167 8.90934H20.596H20.6182Z" fill="black"/>
<path d="M7.37407 19.0985C7.47915 19.0981 7.58308 19.0767 7.67977 19.0356C7.77647 18.9945 7.86398 18.9345 7.93718 18.8591L9.07226 17.6797C9.14238 17.6069 9.2264 17.5491 9.31932 17.5094C9.41225 17.4698 9.51219 17.4493 9.6132 17.4491H9.65754C9.76242 17.4503 9.86589 17.4735 9.96133 17.517C10.0568 17.5605 10.1421 17.6235 10.2118 17.7018L11.1651 18.7748C11.2546 18.8771 11.3651 18.9589 11.489 19.0147C11.613 19.0706 11.7474 19.0992 11.8834 19.0985H25.3403C25.8509 18.0465 26.2192 16.9311 26.4355 15.7819H13.5239C13.3885 15.7823 13.2545 15.754 13.1307 15.699C13.0069 15.644 12.8961 15.5635 12.8056 15.4627L11.8523 14.3853C11.782 14.3059 11.6957 14.2423 11.599 14.1988C11.5023 14.1553 11.3975 14.1328 11.2914 14.1328C11.1854 14.1328 11.0806 14.1553 10.9839 14.1988C10.8872 14.2423 10.8009 14.3059 10.7305 14.3853L9.91027 15.3075C9.77794 15.4567 9.61545 15.5762 9.43354 15.658C9.25163 15.7397 9.05445 15.782 8.855 15.7819H0.195557C0.411892 16.9311 0.780183 18.0465 1.29073 19.0985H7.37407Z" fill="black"/>
<path d="M16.9163 5.33113C17.0215 5.33173 17.1257 5.3108 17.2226 5.26962C17.3194 5.22845 17.4068 5.1679 17.4794 5.09169L18.6366 3.9034C18.707 3.83129 18.7911 3.77409 18.8841 3.73524C18.977 3.69638 19.0768 3.67667 19.1776 3.67727H19.2219C19.328 3.67644 19.433 3.69814 19.5301 3.74095C19.6272 3.78375 19.7141 3.84668 19.785 3.92557L20.7383 5.00302C20.8288 5.10379 20.9396 5.18432 21.0634 5.23933C21.1871 5.29435 21.3211 5.3226 21.4566 5.32226H24.015C22.7666 3.6682 21.1513 2.32655 19.2963 1.40298C17.4412 0.479409 15.397 -0.000858526 13.3248 1.15208e-06C11.2525 0.00086083 9.20878 0.482825 7.35448 1.40793C5.50019 2.33304 3.88599 3.67603 2.63904 5.33113H16.9163Z" fill="black"/>
<path d="M11.7763 22.384H8.27793C8.14099 22.3856 8.00528 22.3579 7.87988 22.3029C7.75448 22.2478 7.64227 22.1666 7.55077 22.0647L6.59748 20.9873C6.52642 20.9092 6.43982 20.8467 6.34323 20.804C6.24664 20.7613 6.1422 20.7393 6.03659 20.7393C5.93098 20.7393 5.82653 20.7613 5.72994 20.804C5.63336 20.8467 5.54676 20.9092 5.47569 20.9873L4.65542 21.9095C4.52308 22.0588 4.3606 22.1782 4.17869 22.26C3.99678 22.3418 3.79959 22.384 3.60015 22.384H3.56024C4.81095 23.7177 6.32189 24.7808 7.99967 25.5075C9.67746 26.2342 11.4864 26.6092 13.3149 26.6092C15.1433 26.6092 16.9523 26.2342 18.6301 25.5075C20.3078 24.7808 21.8188 23.7177 23.0695 22.384H11.7763Z" fill="black"/>
</svg>
