<svg width="41" height="41" viewBox="0 0 36 37" fill="none" xmlns="http://www.w3.org/2000/svg">
<circle cx="18" cy="18.8945" r="18" fill="#FAFAFA"/>
<g clip-path="url(#clip0_106_1960)">
<path d="M24.203 18.1938H13.487L17.809 13.8718C17.9403 13.7405 18.014 13.5625 18.014 13.3768C18.014 13.1911 17.9403 13.0131 17.809 12.8818C17.6777 12.7505 17.4997 12.6768 17.314 12.6768C17.1283 12.6768 16.9503 12.7505 16.819 12.8818L11.3 18.3978C11.1694 18.5295 11.0962 18.7074 11.0962 18.8928C11.0962 19.0782 11.1694 19.2561 11.3 19.3878L16.82 24.9078C16.9513 25.0391 17.1293 25.1128 17.315 25.1128C17.5007 25.1128 17.6787 25.0391 17.81 24.9078C17.9413 24.7765 18.015 24.5985 18.015 24.4128C18.015 24.2271 17.9413 24.0491 17.81 23.9178L13.487 19.5928H24.203C24.3887 19.5928 24.5667 19.519 24.698 19.3878C24.8293 19.2565 24.903 19.0784 24.903 18.8928C24.903 18.7071 24.8293 18.5291 24.698 18.3978C24.5667 18.2665 24.3887 18.1928 24.203 18.1928V18.1938Z" fill="#646470"/>
</g>
<defs>
<clipPath id="clip0_106_1960">
<rect width="14" height="14" fill="white" transform="translate(11 11.8945)"/>
</clipPath>
</defs>
</svg>

