<svg width="24" height="22" viewBox="0 0 24 22" fill="none" xmlns="http://www.w3.org/2000/svg">
<path fill-rule="evenodd" clip-rule="evenodd" d="M18.8726 6.45935L23.931 6.46126C23.9326 2.38798 21.5068 0.0081216 17.3712 0.00655926L6.57064 0.00247909C2.435 0.000916746 0.0073883 2.37894 0.00584562 6.40088L0.00247798 15.1807C0.000935301 19.2026 2.42672 21.5825 6.56236 21.5841L17.3629 21.5881C21.4814 21.5897 23.9261 19.2117 23.9277 15.1897L23.9278 14.7961L18.8694 14.7942C16.5281 14.7933 14.6148 12.9271 14.6157 10.6337C14.6166 8.35747 16.5142 6.45846 18.8726 6.45935ZM18.8719 8.23928L23.0417 8.24085C23.5373 8.24104 23.9302 8.63482 23.93 9.11403L23.9289 12.1433C23.9287 12.6225 23.5184 13.016 23.0399 13.0158L18.9726 13.0143C17.7763 13.031 16.7513 12.2262 16.4783 11.0965C16.3418 10.3948 16.5301 9.67602 16.9917 9.11141C17.4533 8.58103 18.137 8.25611 18.8719 8.23928ZM19.0416 11.4227L19.4346 11.4228C19.9473 11.423 20.3576 11.0295 20.3578 10.5332C20.358 10.0369 19.948 9.64308 19.4353 9.64289L19.0422 9.64274C18.803 9.64265 18.5637 9.72813 18.3927 9.89922C18.2218 10.0703 18.1192 10.2928 18.1191 10.5324C18.136 11.0116 18.546 11.4225 19.0416 11.4227ZM5.67952 6.45437L12.4298 6.45692C12.9425 6.45711 13.3528 6.06363 13.353 5.5673C13.3532 5.07098 12.9432 4.67719 12.4305 4.67699L5.6802 4.67444C5.18461 4.67426 4.77431 5.06774 4.75703 5.56406C4.75685 6.04327 5.16684 6.43706 5.67952 6.45437Z" fill="#0A0A14"/>
</svg>
