<svg width="10" height="13" viewBox="0 0 10 13" fill="none" xmlns="http://www.w3.org/2000/svg">
<path d="M9.32757 0.898438H2.50667C2.45068 0.898438 2.40487 0.944249 2.40487 1.00024V1.71287C2.40487 1.76886 2.45068 1.81468 2.50667 1.81468H8.81854V10.5698C8.81854 10.6258 8.86436 10.6717 8.92035 10.6717H9.63298C9.68897 10.6717 9.73478 10.6258 9.73478 10.5698V1.30565C9.73478 1.08041 9.55281 0.898438 9.32757 0.898438ZM7.6987 2.52731H1.18322C0.957976 2.52731 0.776001 2.70928 0.776001 2.93452V9.68797C0.776001 9.79614 0.819268 9.89921 0.895621 9.97557L3.10096 12.1809C3.12895 12.2089 3.16077 12.2318 3.19513 12.2509V12.2751H3.24857C3.29311 12.2916 3.3402 12.3005 3.38855 12.3005H7.6987C7.92394 12.3005 8.10591 12.1185 8.10591 11.8933V2.93452C8.10591 2.70928 7.92394 2.52731 7.6987 2.52731ZM3.19385 10.9796L2.09818 9.88267H3.19385V10.9796ZM7.18967 11.3843H4.00829V9.57726C4.00829 9.29602 3.7805 9.06824 3.49927 9.06824H1.69224V3.44355H7.18967V11.3843Z" fill="#838078"/>
</svg>
