<svg width="14" height="15" viewBox="0 0 14 15" fill="none" xmlns="http://www.w3.org/2000/svg">
<g clip-path="url(#clip0_106_1981)">
<path d="M9.6 4.15625H0.99C0.44 4.15625 0 4.60625 0 5.14625V13.7563C0 14.3063 0.44 14.7463 0.99 14.7463H9.6C10.14 14.7463 10.58 14.3063 10.58 13.7563V5.14625C10.58 4.60625 10.14 4.15625 9.6 4.15625Z" fill="black"/>
<path d="M13.0199 0.746094H4.40992C3.85992 0.746094 3.41992 1.19609 3.41992 1.73609V3.24609H10.4699C11.0099 3.24609 11.4499 3.69609 11.4499 4.23609V11.3361H13.0199C13.5599 11.3361 13.9999 10.8961 13.9999 10.3461V1.73609C13.9999 1.19609 13.5599 0.746094 13.0199 0.746094Z" fill="black"/>
</g>
<defs>
<clipPath id="clip0_106_1981">
<rect width="14" height="14" fill="white" transform="translate(0 0.746094)"/>
</clipPath>
</defs>
</svg>
