<svg width="41" height="41" viewBox="0 0 41 41" fill="none" xmlns="http://www.w3.org/2000/svg">
<rect x="0.632812" y="0.363281" width="40" height="40" rx="20" fill="#FAFAFA"/>
<path d="M26.4087 26.0396C26.7075 25.7409 26.7075 25.2429 26.4087 25.0438L21.6287 20.3633L26.2096 15.6828C26.5083 15.384 26.5083 14.8861 26.2096 14.5873C25.9108 14.2886 25.4129 14.2886 25.1141 14.5873L20.5332 19.3674L15.9523 14.6869C15.6536 14.3882 15.1556 14.3882 14.8569 14.6869C14.5581 14.9857 14.5581 15.384 14.8569 15.6828L19.5374 20.3633L14.8569 25.0438C14.5581 25.3425 14.5581 25.8405 14.8569 26.1392C15.1556 26.438 15.6536 26.438 15.8527 26.1392L20.5332 21.4587L25.2137 26.0396C25.5125 26.3384 26.0104 26.3384 26.4087 26.0396Z" fill="#838078"/>
</svg>
