<svg width="34" height="35" viewBox="0 0 34 35" fill="none" xmlns="http://www.w3.org/2000/svg">
<circle opacity="0.15" cx="17" cy="17.5" r="17" fill="#5865F2"/>
<path d="M23.9626 11.1423C22.6882 10.5575 21.3215 10.1267 19.8925 9.87994C19.8665 9.87518 19.8405 9.88708 19.8271 9.91088C19.6513 10.2235 19.4566 10.6313 19.3203 10.9519C17.7834 10.7218 16.2543 10.7218 14.7489 10.9519C14.6125 10.6242 14.4108 10.2235 14.2342 9.91088C14.2208 9.88787 14.1948 9.87597 14.1688 9.87994C12.7406 10.1259 11.3739 10.5568 10.0987 11.1423C10.0876 11.1471 10.0782 11.155 10.0719 11.1653C7.47956 15.0382 6.76942 18.8159 7.11779 22.5467C7.11937 22.565 7.12961 22.5824 7.1438 22.5935C8.85414 23.8496 10.5109 24.6121 12.1369 25.1175C12.1629 25.1255 12.1905 25.1159 12.207 25.0945C12.5917 24.5693 12.9345 24.0154 13.2285 23.433C13.2458 23.3989 13.2293 23.3584 13.1938 23.3449C12.65 23.1386 12.1321 22.8871 11.634 22.6015C11.5946 22.5785 11.5915 22.5221 11.6277 22.4951C11.7325 22.4166 11.8374 22.3348 11.9375 22.2523C11.9556 22.2373 11.9808 22.2341 12.0021 22.2436C15.2746 23.7377 18.8174 23.7377 22.0513 22.2436C22.0726 22.2333 22.0978 22.2365 22.1167 22.2515C22.2169 22.3341 22.3217 22.4166 22.4273 22.4951C22.4635 22.5221 22.4612 22.5785 22.4218 22.6015C21.9236 22.8927 21.4058 23.1386 20.8612 23.3441C20.8257 23.3576 20.8099 23.3989 20.8273 23.433C21.1276 24.0146 21.4704 24.5684 21.848 25.0937C21.8637 25.1159 21.8921 25.1255 21.9181 25.1175C23.552 24.6121 25.2087 23.8496 26.9191 22.5935C26.9341 22.5824 26.9435 22.5658 26.9451 22.5475C27.362 18.2343 26.2468 14.4876 23.9886 11.1661C23.9831 11.155 23.9737 11.1471 23.9626 11.1423ZM13.7172 20.275C12.7319 20.275 11.9201 19.3705 11.9201 18.2597C11.9201 17.1488 12.7162 16.2443 13.7172 16.2443C14.726 16.2443 15.53 17.1567 15.5142 18.2597C15.5142 19.3705 14.7181 20.275 13.7172 20.275ZM20.3615 20.275C19.3763 20.275 18.5644 19.3705 18.5644 18.2597C18.5644 17.1488 19.3605 16.2443 20.3615 16.2443C21.3703 16.2443 22.1743 17.1567 22.1585 18.2597C22.1585 19.3705 21.3703 20.275 20.3615 20.275Z" fill="#5865F2"/>
</svg>


