<svg width="30" height="16" viewBox="0 0 30 16" fill="none" xmlns="http://www.w3.org/2000/svg">
<path fill-rule="evenodd" clip-rule="evenodd" d="M11.4377 0.0882022C10.337 0.371517 9.58074 1.2125 10.1694 1.49848C10.8529 1.8305 11.167 2.04147 11.6314 2.4806C11.9986 2.82772 12.2851 3.17427 12.2047 3.17409C12.1872 3.17404 11.9856 3.03076 11.8951 2.95413C11.7826 2.85872 11.4175 2.62731 11.2198 2.52599C10.9629 2.39438 10.5452 2.23164 10.3071 2.17043C9.59097 1.98635 9.49008 1.97371 8.72929 1.97267C7.50342 1.97098 7.28532 2.05942 5.67429 3.21132C5.09047 3.62876 4.16423 4.30989 4.13979 4.33974C4.13339 4.34756 4.0183 4.43675 3.88402 4.53794C3.74975 4.63914 3.63465 4.72747 3.62825 4.73422C3.62185 4.74099 3.55907 4.79058 3.48874 4.84443C3.4184 4.89828 3.35562 4.94754 3.34922 4.9539C3.34282 4.96025 3.2802 5.00964 3.21007 5.06367C3.13992 5.11767 3.03004 5.20878 2.9659 5.26614C2.90173 5.32348 2.81785 5.39144 2.77949 5.41713C2.64115 5.50984 2.26046 5.95749 1.98648 6.34965C1.67425 6.79654 1.4436 7.27021 1.23037 7.9023C1.16862 8.08537 1.08325 8.42546 1.06237 8.57163C1.04944 8.66217 1.02808 8.81034 1.0149 8.90089C0.98114 9.13301 0.962737 10.0429 0.990716 10.0974C1.00317 10.1217 1.01887 10.2058 1.02563 10.2843C1.0409 10.462 1.07614 10.7167 1.09551 10.7895C1.10354 10.8197 1.12125 10.8889 1.13484 10.9433C1.33724 11.7528 1.78042 12.6395 2.27619 13.2267C2.33371 13.2949 2.41398 13.3902 2.45458 13.4386C3.35458 14.5117 4.93245 15.3425 6.42295 15.528C6.84413 15.5804 8.10757 15.5592 8.44229 15.4941C10.0307 15.1853 11.2862 14.4745 12.2483 13.3395C12.4785 13.0679 12.5224 13.0097 12.716 12.7193C12.9311 12.3967 13.279 11.6677 13.3602 11.3696C13.3721 11.326 13.4188 11.162 13.4641 11.0051C13.5093 10.8482 13.5467 10.6798 13.5473 10.6309C13.5495 10.4601 13.596 10.4545 13.8428 10.5957C14.1068 10.7466 14.5064 10.8926 14.7777 10.9373C15.4658 11.0508 16.2676 10.9259 16.8528 10.6142C17.1132 10.4755 17.1534 10.4764 17.1637 10.6208C17.2406 11.7049 18.2774 13.4131 19.3539 14.229C19.4049 14.2676 19.507 14.3453 19.5809 14.4017C20.2196 14.8892 21.2975 15.3477 22.2057 15.5181C22.7196 15.6146 24.083 15.6227 24.5498 15.5322C25.9998 15.2508 27.3283 14.5322 28.187 13.5648C28.7004 12.9864 29.105 12.3601 29.2991 11.8437C29.324 11.7773 29.371 11.6539 29.4034 11.5695C29.7292 10.722 29.8214 9.68685 29.6637 8.64964C29.6378 8.47868 29.6053 8.33691 29.5454 8.13335C29.5188 8.04271 29.4876 7.93335 29.4762 7.89033C29.3274 7.33128 28.7902 6.38242 28.3193 5.84683C28.0727 5.56646 28.0443 5.53794 27.881 5.40728C27.7982 5.34101 27.7148 5.27145 27.6957 5.25274C27.6766 5.23401 27.6036 5.1744 27.5335 5.12028C27.4634 5.06615 27.4009 5.01642 27.3945 5.00977C27.3881 5.0031 27.2995 4.9339 27.1976 4.85595C27.0956 4.77803 26.9442 4.65945 26.861 4.59246C26.7778 4.52549 26.6697 4.44094 26.6207 4.40459C26.5718 4.36825 26.3375 4.19219 26.1001 4.01333C25.3589 3.45489 24.9361 3.14833 24.4172 2.79317C23.3884 2.08889 23.1348 2.00545 22.0169 2.00315C21.2674 2.00162 21.1612 2.01457 20.4498 2.19427C19.9644 2.31687 19.1591 2.70259 18.8929 2.93994C18.3152 3.45522 18.4868 3.09937 19.0904 2.53045C19.5861 2.0632 19.9426 1.82487 20.6313 1.50043C21.1381 1.26159 20.5111 0.501268 19.5349 0.170882C19.1966 0.0564117 18.6709 0.00641045 18.4563 0.0683126C18.4193 0.0790073 18.3263 0.10022 18.2497 0.115477C17.6648 0.231934 17.0299 0.713898 16.729 1.26992C16.6617 1.39424 16.632 1.40107 16.4756 1.32813C16.2087 1.20364 16.1382 1.18129 15.8683 1.13549C15.6971 1.10644 15.0455 1.09863 14.9051 1.12395C14.7249 1.15644 14.4853 1.23181 14.3308 1.30455C14.1382 1.39524 14.1117 1.39569 14.0622 1.30906C13.7038 0.681618 13.119 0.224858 12.5169 0.10204C12.4403 0.0864243 12.3474 0.0647754 12.3104 0.0539073C12.1715 0.0130908 11.6498 0.0336066 11.4377 0.0882022ZM7.74465 6.16638C9.10079 6.36729 10.2245 7.22755 10.7343 8.4551C10.793 8.59621 10.8504 8.76191 10.8619 8.82333C10.8735 8.88476 10.8937 8.97949 10.9068 9.03386C11.3113 10.7114 10.2303 12.5379 8.48265 13.1298C7.8428 13.3465 7.28065 13.39 6.46302 13.2862C5.21895 13.1282 3.98991 12.12 3.56015 10.905C3.45623 10.6113 3.39874 10.3537 3.36891 10.0482C3.20135 8.33216 4.44271 6.65705 6.17909 6.25619C6.28692 6.23128 6.40726 6.20148 6.44649 6.18998C6.48572 6.17845 6.56407 6.16842 6.62061 6.16772C6.67715 6.167 6.74432 6.15765 6.76988 6.14693C6.82638 6.12326 7.55107 6.13771 7.74465 6.16638ZM24.1191 6.2074C24.2021 6.22042 24.3117 6.2409 24.3627 6.25294C24.4137 6.26496 24.5025 6.28471 24.5599 6.29686C25.8476 6.56897 27.0913 7.83648 27.294 9.08325C27.3952 9.706 27.3798 10.2219 27.2458 10.6971C26.7251 12.5434 24.966 13.5947 22.8491 13.3245C21.1216 13.104 19.6205 11.3439 19.7319 9.66938C19.7471 9.44109 19.7796 9.20832 19.8177 9.05475C19.8312 9.00043 19.8519 8.9058 19.8637 8.84443C20.0764 7.74437 21.3407 6.56126 22.5987 6.28523C22.6881 6.26561 22.799 6.2401 22.8452 6.22852C22.8914 6.21695 22.9645 6.20687 23.0077 6.20613C23.0509 6.20538 23.1072 6.196 23.1327 6.18528C23.1927 6.16017 23.9224 6.17652 24.1191 6.2074ZM15.6156 7.54999C16.7437 7.8774 16.5343 9.39838 15.3615 9.39563C14.8452 9.39442 14.5156 9.13993 14.3859 8.64238C14.2175 7.99591 14.9401 7.35392 15.6156 7.54999Z" fill="#B4B0A8"/>
</svg>
