<svg width="26" height="26" viewBox="0 0 26 26" fill="none" xmlns="http://www.w3.org/2000/svg">
<circle cx="13" cy="13" r="13" fill="#F8F8FA"/>
<path d="M17.9658 11.221V9.35129C17.9653 9.00209 17.8263 8.66735 17.5794 8.42035C17.3324 8.17344 16.9977 8.03446 16.6485 8.03395H14.7788C14.3221 5.9809 11.4376 5.99649 10.9868 8.03395H9.11715C8.76795 8.03447 8.43312 8.17344 8.18621 8.42035C7.9393 8.66735 7.80032 9.00209 7.7998 9.35129V11.5645C7.7998 11.668 7.84093 11.7673 7.91411 11.8405C7.9873 11.9137 8.08663 11.9548 8.19013 11.9548C9.71241 11.9997 9.71825 14.2071 8.19013 14.2635C8.08663 14.2635 7.9873 14.3047 7.91411 14.3779C7.84093 14.4511 7.7998 14.5504 7.7998 14.6539V16.8827C7.80033 17.2319 7.93929 17.5667 8.18621 17.8136C8.43312 18.0605 8.76795 18.1995 9.11715 18.2H11.3381C11.4416 18.2 11.5409 18.1589 11.6141 18.0857C11.6873 18.0125 11.7284 17.9132 11.7284 17.8097C11.785 16.2855 13.9903 16.2952 14.0371 17.8097C14.0371 17.9132 14.0783 18.0125 14.1515 18.0857C14.2247 18.1589 14.324 18.2 14.4275 18.2H16.6485C16.9977 18.1995 17.3324 18.0605 17.5794 17.8136C17.8263 17.5667 17.9653 17.2319 17.9658 16.8827V15.013C18.552 14.8919 19.0492 14.5065 19.3127 13.9691C19.5761 13.4316 19.5761 12.8024 19.3127 12.265C19.0493 11.7275 18.552 11.342 17.9658 11.221L17.9658 11.221Z" fill="#646470"/>
</svg>
