<svg width="21" height="20" viewBox="0 0 21 20" fill="none" xmlns="http://www.w3.org/2000/svg">
<path d="M8.99917 11.4128C9.29824 11.4129 9.54025 11.6555 9.54013 11.955L9.53727 19.4284C9.53715 19.7279 9.29496 19.9702 8.99589 19.9701L1.53351 19.9673C1.46244 19.9673 1.39207 19.9532 1.32643 19.926C1.26078 19.8987 1.20114 19.8588 1.15091 19.8084C1.10067 19.7581 1.06083 19.6983 1.03366 19.6326C1.00649 19.5668 0.992522 19.4963 0.992549 19.4251L0.995416 11.9517C0.995531 11.6522 1.23772 11.4099 1.53679 11.41L8.99917 11.4128ZM20.3921 11.4171C20.6912 11.4172 20.9332 11.6598 20.9331 11.9593L20.9302 19.4327C20.9301 19.7322 20.6879 19.9745 20.3888 19.9744L12.9265 19.9716C12.8554 19.9716 12.785 19.9575 12.7194 19.9303C12.6537 19.903 12.5941 19.8631 12.5439 19.8127C12.4936 19.7624 12.4538 19.7026 12.4266 19.6369C12.3994 19.5711 12.3855 19.5006 12.3855 19.4294L12.3884 11.956C12.3885 11.6565 12.6307 11.4142 12.9297 11.4143L20.3921 11.4171ZM9.00355 0.00302354C9.30262 0.00313652 9.54462 0.245686 9.54451 0.545192L9.54164 8.01859C9.54153 8.3181 9.29933 8.56046 9.00027 8.56035L1.53788 8.55753C1.39436 8.55748 1.25673 8.50033 1.15528 8.39865C1.05383 8.29697 0.99687 8.1591 0.996926 8.01536L0.999792 0.541964C0.999907 0.242458 1.2421 9.14595e-05 1.54117 0.000204439L9.00355 0.00302354V0.00302354ZM20.3965 0.00732752C20.6956 0.0074405 20.9376 0.24999 20.9375 0.549496L20.9346 8.0229C20.9345 8.3224 20.6923 8.56477 20.3932 8.56466L12.9308 8.56184C12.8598 8.56181 12.7894 8.54776 12.7238 8.5205C12.6581 8.49324 12.5985 8.4533 12.5482 8.40295C12.498 8.35261 12.4582 8.29285 12.431 8.22708C12.4038 8.16132 12.3899 8.09084 12.3899 8.01967L12.3927 0.546268C12.3929 0.246762 12.6351 0.00439543 12.9341 0.00450841L20.3965 0.00732752Z" fill="#B4B0A8"/>
</svg>
