<svg width="32" height="22" viewBox="0 0 32 22" fill="none" xmlns="http://www.w3.org/2000/svg">
<path d="M25.8057 8.34845C24.8914 3.75416 20.8457 0.302734 16 0.302734C12.1371 0.302734 8.8 2.49702 7.13143 5.69702C3.10857 6.10845 0 9.51416 0 13.6284C0 18.0399 3.58857 21.6284 8 21.6284H25.3257C29.0057 21.6284 32 18.6342 32 14.9542C32 11.457 29.2571 8.59988 25.8057 8.34845ZM19.9086 11.5027C19.68 11.7313 19.3829 11.8227 19.1086 11.8227C18.8343 11.8227 18.5143 11.7313 18.2857 11.5027L17.1429 10.337V16.0513C17.1429 16.6913 16.64 17.1942 16 17.1942C15.36 17.1942 14.8571 16.6913 14.8571 16.0513V10.3599L13.7143 11.5027C13.4857 11.7313 13.1886 11.8456 12.8914 11.8456C12.5943 11.8456 12.32 11.7313 12.0914 11.5027C11.6343 11.0456 11.6343 10.337 12.0914 9.87988L15.1771 6.79416C15.2914 6.67988 15.4057 6.61131 15.5429 6.54273C15.7029 6.49702 15.84 6.45131 16 6.45131C16.16 6.45131 16.2971 6.47416 16.4343 6.54273C16.5714 6.58845 16.6857 6.67988 16.7771 6.77131C16.7771 6.77131 16.8 6.77131 16.8 6.79416L19.9086 9.87988C20.3657 10.3142 20.3657 11.0456 19.9086 11.5027Z" fill="#B4B0A8"/>
</svg>
