<svg width="14" height="15" viewBox="0 0 14 15" fill="none" xmlns="http://www.w3.org/2000/svg">
<path fill-rule="evenodd" clip-rule="evenodd" d="M6.9995 0.53125C6.08025 0.531316 5.17001 0.712441 4.32075 1.06428C3.4715 1.41613 2.69986 1.9318 2.0499 2.58186C0.737238 3.8947 -0.000132581 5.67523 1.78805e-08 7.53175C0.000132617 9.38826 0.737758 11.1687 2.05061 12.4813C3.36345 13.794 5.14398 14.5314 7.0005 14.5312C8.85701 14.5311 10.6374 13.7935 11.9501 12.4806C13.2628 11.1678 14.0001 9.38727 14 7.53075C13.9999 5.67423 13.2622 3.89381 11.9494 2.58115C10.6365 1.26849 8.85602 0.531117 6.9995 0.53125V0.53125ZM8.73238 10.6715C8.01043 11.3515 7.49546 11.7754 7.15849 11.9674C6.81051 12.1674 6.52853 12.2634 6.29655 12.2634C6.19908 12.2676 6.10183 12.2509 6.0113 12.2146C5.92078 12.1782 5.83905 12.1229 5.77159 12.0524C5.6426 11.9144 5.5776 11.7254 5.5776 11.4905C5.5776 10.8265 5.95957 9.26563 6.74452 6.72081C6.77601 6.62257 6.79186 6.51999 6.79151 6.41683H6.78451C6.68252 6.42527 6.58472 6.46121 6.50154 6.52082C6.36654 6.60482 5.44461 6.98279 5.26162 7.05778C5.23409 7.06982 5.20324 7.07195 5.17432 7.06381C5.14539 7.05567 5.12018 7.03776 5.10298 7.01312C5.08577 6.98849 5.07763 6.95866 5.07993 6.9287C5.08224 6.89874 5.09486 6.87051 5.11563 6.8488C5.6386 6.27384 6.12356 5.85687 6.55953 5.61089C7.0095 5.3579 7.38547 5.23491 7.71045 5.23491C7.90544 5.23491 8.06042 5.28091 8.17242 5.3729C8.23033 5.42079 8.27655 5.48125 8.30757 5.5497C8.33858 5.61814 8.35358 5.69276 8.3514 5.76788C8.3514 5.87187 8.29841 6.18785 7.84344 7.70974C7.30348 9.52261 7.0305 10.6245 7.0305 10.9875C7.0305 11.0315 7.0405 11.0655 7.0595 11.0915C7.06649 11.1015 7.07249 11.1075 7.07649 11.1115C7.21848 11.0835 7.94643 10.7615 8.58639 10.4595C8.61441 10.4456 8.64653 10.4422 8.67684 10.4501C8.70715 10.4579 8.73361 10.4764 8.75137 10.5022C8.76912 10.528 8.77698 10.5593 8.77349 10.5904C8.77 10.6215 8.7554 10.6503 8.73238 10.6715ZM8.64738 4.31498C8.46439 4.51497 8.25341 4.61696 8.02043 4.61696C7.93033 4.61897 7.84082 4.60192 7.75776 4.56694C7.67471 4.53196 7.59998 4.47984 7.53846 4.41397C7.40937 4.27389 7.34105 4.08836 7.34847 3.89801C7.34847 3.63303 7.43547 3.40404 7.60646 3.21806C7.68462 3.1277 7.78136 3.05528 7.89008 3.00575C7.99881 2.95622 8.11694 2.93075 8.23641 2.93108C8.4324 2.93108 8.59639 2.99807 8.72538 3.12906C8.85237 3.25906 8.91736 3.42704 8.91736 3.62703C8.91736 3.88701 8.82637 4.11699 8.64738 4.31498Z" fill="#838078"/>
</svg>
