<svg width="41" height="41" viewBox="0 0 41 41" fill="none" xmlns="http://www.w3.org/2000/svg">
<rect x="0.584473" y="0.53125" width="39.9273" height="40" rx="10" fill="black"/>
<path fill-rule="evenodd" clip-rule="evenodd" d="M23.833 7.60341C23.8175 7.61571 23.7527 7.70888 23.6889 7.81046C23.0072 8.8966 21.2213 11.2956 20.5758 11.9923C20.5414 12.0294 20.5262 12.0138 20.1535 11.5595C19.0743 10.244 18.0979 8.91861 17.4291 7.86125C17.2251 7.53881 17.2732 7.51001 15.6191 8.94464C13.4539 10.8226 13.5 10.7641 13.9569 11.051C14.6933 11.5134 15.4416 12.0338 16.293 12.6753C17.1588 13.3277 18.4263 14.3553 18.4263 14.4049C18.4263 14.5264 14.5625 18.3836 14.4408 18.3836C14.4028 18.3836 14.0816 18.0052 13.4844 17.257C12.4873 16.0077 11.7093 14.9235 11.0525 13.8681C10.8636 13.5645 10.846 13.5421 10.8073 13.557C10.783 13.5663 10.161 14.2348 9.72734 14.7176C7.81031 16.852 7.56586 17.1866 7.81064 17.3407C8.96545 18.068 10.8115 19.4377 11.9116 20.3835C12.0747 20.5238 12.0968 20.4872 11.6068 20.8889C10.2439 22.0062 8.87418 23.0102 7.73073 23.7302C7.6662 23.7708 7.61096 23.8169 7.60799 23.8325C7.59316 23.9107 9.6852 26.3258 10.6468 27.3407C10.8284 27.5324 10.8128 27.5377 11.0074 27.2193C11.7308 26.0361 12.8582 24.5005 14.1214 22.9776C14.4886 22.5349 14.3219 22.4217 16.4789 24.5787C18.6191 26.719 18.5126 26.5669 18.1077 26.9033C16.5978 28.158 15.1338 29.2364 13.9043 29.9994C13.718 30.1151 13.5607 30.2222 13.5548 30.2375C13.5165 30.3373 17.1104 33.5012 17.2161 33.4606C17.2305 33.4551 17.2984 33.3619 17.3671 33.2536C18.0112 32.2366 18.8314 31.1031 19.7816 29.9171C20.1299 29.4823 20.5046 29.0288 20.5269 29.0151C20.5531 28.9989 20.5698 29.0169 20.8856 29.4C21.936 30.6738 23.0471 32.1797 23.6621 33.1629C23.7235 33.261 23.7628 33.306 23.7872 33.306C23.9216 33.306 27.413 30.2333 27.3791 30.1449C27.3732 30.1295 27.245 30.0392 27.0942 29.9442C25.8666 29.1711 24.4378 28.116 23.011 26.9291C22.6073 26.5932 22.6282 26.6263 22.7421 26.5024C23.8588 25.2862 26.5377 22.6313 26.6482 22.6313C26.6665 22.6313 26.8209 22.8024 27.0192 23.0422C28.2129 24.4862 29.2703 25.9221 29.9873 27.073C30.1673 27.3618 30.1846 27.3835 30.2191 27.3626C30.3071 27.3095 31.6543 25.8209 32.3533 25.0045C33.5448 23.613 33.4879 23.8223 32.7993 23.3646C31.6471 22.5988 30.0463 21.3926 29.161 20.6231C29.0138 20.4952 28.9956 20.5309 29.3642 20.2247C30.66 19.1481 32.0257 18.1378 33.1814 17.4008C33.4944 17.2011 33.5131 17.1832 33.4722 17.1221C33.3975 17.0106 32.6238 16.0863 32.0941 15.4759C31.5033 14.795 30.3719 13.5559 30.3086 13.5205C30.267 13.4972 30.2586 13.5081 30.0104 13.905C29.3846 14.906 28.5536 16.0631 27.628 17.2227C27.1708 17.7954 26.6684 18.4021 26.6514 18.4021C26.5411 18.4021 22.6555 14.5125 22.6555 14.4021C22.6555 14.3549 24.0691 13.2154 24.9364 12.5635C25.7237 11.9718 26.8399 11.2111 27.3878 10.893C27.5603 10.7929 27.5628 10.7722 27.4183 10.6386C25.7611 9.10546 23.9123 7.5403 23.833 7.60341ZM20.9601 12.5245C21.3515 12.9801 22.0585 13.7778 22.4127 14.1636C22.648 14.4197 22.6635 14.3711 22.2261 14.747C21.7983 15.1147 21.1267 15.7094 20.7947 16.0147C20.5241 16.2635 20.5614 16.2595 20.3464 16.0629C19.9923 15.7391 19.1626 15.0047 18.8271 14.7179C18.4108 14.3621 18.4063 14.4577 18.8631 13.9558C19.2462 13.5348 19.9441 12.7417 20.3176 12.3029C20.5663 12.0106 20.4986 11.9873 20.9601 12.5245ZM21.0619 16.7302C21.6795 17.306 23.6722 19.2959 24.2251 19.8888C24.4524 20.1325 24.6757 20.3711 24.7212 20.4189L24.804 20.5057L24.6393 20.6853C23.7589 21.6454 22.0967 23.3166 21.0256 24.3188C20.764 24.5636 20.5521 24.7696 20.5547 24.7766C20.5658 24.8066 21.6548 25.7796 22.2354 26.2783C22.6738 26.6549 22.6725 26.5681 22.2466 27.036C21.8294 27.4944 21.2393 28.1639 20.8548 28.6151C20.5656 28.9544 20.5515 28.969 20.528 28.9545C20.5199 28.9495 20.3411 28.7443 20.1306 28.4986C19.7427 28.0457 19.0357 27.2482 18.6786 26.8606C18.4391 26.6007 18.4385 26.629 18.6882 26.4171C19.2627 25.9297 20.5317 24.7982 20.5317 24.7734C20.5317 24.7668 20.2844 24.5296 19.9822 24.2463C19.6801 23.9629 18.9751 23.2738 18.4156 22.7149C17.491 21.7911 17.1572 21.4477 16.4987 20.7423L16.2794 20.5075L16.5171 20.2541C17.7488 18.9416 18.8983 17.791 20.2546 16.5129C20.5777 16.2085 20.4718 16.18 21.0619 16.7302ZM14.7712 18.813C15.1151 19.2132 15.6832 19.8552 16.0441 20.2514C16.3045 20.5374 16.2934 20.4952 16.149 20.6502C15.8228 21.0005 14.9571 21.9796 14.5974 22.4051C14.4279 22.6056 14.4428 22.6017 14.3104 22.4804C13.7473 21.964 12.9555 21.2626 12.4102 20.797C12.0257 20.4686 12.009 20.5632 12.5302 20.1172C13.0043 19.7115 13.8075 18.999 14.1785 18.6551C14.463 18.3915 14.3929 18.3728 14.7712 18.813ZM26.8848 18.6359C27.2606 18.9822 28.0631 19.6938 28.5341 20.0984C28.7861 20.3149 28.9897 20.5021 28.9866 20.5144C28.9835 20.5267 28.769 20.7188 28.51 20.9411C28.0143 21.3666 27.4373 21.8774 26.9587 22.3144C26.6105 22.6322 26.7009 22.6533 26.2723 22.1546C25.8852 21.7043 25.4123 21.1704 25.0431 20.7669C24.918 20.6302 24.8179 20.5123 24.8206 20.5048C24.8233 20.4973 24.9971 20.3016 25.2067 20.07C25.6276 19.6047 26.1941 18.9602 26.4602 18.6438C26.6675 18.3974 26.6268 18.3982 26.8848 18.6359Z" fill="white"/>
</svg>
