<svg width="29" height="29" viewBox="0 0 202 193" fill="none" xmlns="http://www.w3.org/2000/svg">
<path fill-rule="evenodd" clip-rule="evenodd" d="M126.21 0.0137443C126.09 0.10531 125.586 0.798925 125.09 1.5551C119.786 9.64077 105.894 27.4999 100.874 32.6864C100.606 32.9626 100.487 32.8463 97.5887 29.4647C89.1937 19.6712 81.5986 9.80465 76.3959 1.93318C74.8093 -0.46718 75.1834 -0.681521 62.3166 9.99837C45.4739 23.9785 45.833 23.5429 49.3872 25.679C55.1149 29.1214 60.9362 32.995 67.5587 37.771C74.2935 42.6278 84.1529 50.2778 84.1529 50.6465C84.1529 51.5509 54.0975 80.2656 53.1508 80.2656C52.8554 80.2656 50.357 77.4491 45.7116 71.879C37.955 62.5784 31.9033 54.5076 26.7948 46.6504C25.3254 44.3905 25.1881 44.2238 24.8871 44.3343C24.6984 44.4037 19.8596 49.3804 16.4865 52.9747C1.5744 68.8642 -0.327078 71.3546 1.57699 72.5022C10.5599 77.9163 24.9197 88.113 33.4768 95.154C34.7462 96.1984 34.918 95.9258 31.1065 98.9161C20.5046 107.234 9.84994 114.708 0.955377 120.068C0.453429 120.37 0.0237421 120.713 0.000612866 120.83C-0.114746 121.411 16.1586 139.391 23.6387 146.946C25.0516 148.373 24.9297 148.413 26.444 146.042C32.0711 137.234 40.8406 125.802 50.6669 114.465C53.523 111.17 52.2259 110.327 69.0047 126.385C85.6532 142.317 84.8241 141.185 81.6748 143.69C69.9302 153.03 58.5418 161.058 48.978 166.739C47.5284 167.6 46.305 168.397 46.2594 168.511C45.9615 169.254 73.9174 192.807 74.7392 192.505C74.8515 192.464 75.3799 191.77 75.9136 190.964C80.924 183.393 87.3045 174.955 94.696 166.125C97.4053 162.889 100.32 159.513 100.493 159.411C100.697 159.29 100.827 159.424 103.284 162.276C111.454 171.759 120.097 182.969 124.881 190.289C125.358 191.019 125.664 191.354 125.854 191.354C126.899 191.354 154.058 168.479 153.795 167.822C153.749 167.707 152.751 167.034 151.579 166.327C142.029 160.572 130.915 152.718 119.817 143.881C116.676 141.381 116.839 141.628 117.724 140.705C126.411 131.651 147.25 111.887 148.109 111.887C148.251 111.887 149.452 113.161 150.995 114.946C160.28 125.696 168.505 136.385 174.083 144.953C175.483 147.103 175.618 147.264 175.886 147.109C176.57 146.713 187.05 135.632 192.488 129.554C201.756 119.196 201.313 120.753 195.956 117.346C186.994 111.646 174.542 102.666 167.655 96.9376C166.51 95.9852 166.369 96.2507 169.236 93.9716C179.315 85.9573 189.939 78.4358 198.929 72.9491C201.364 71.4628 201.509 71.3293 201.191 70.8748C200.61 70.0444 194.592 63.1641 190.471 58.6195C185.876 53.5508 177.074 44.3262 176.582 44.0626C176.259 43.8894 176.193 43.9705 174.263 46.9254C169.394 54.3771 162.93 62.9912 155.731 71.6232C152.174 75.8869 148.266 80.4031 148.133 80.4031C147.276 80.4031 117.051 51.4477 117.051 50.6261C117.051 50.2742 128.047 41.7914 134.793 36.9387C140.917 32.5336 149.6 26.871 153.862 24.5031C155.204 23.7577 155.223 23.6038 154.1 22.6088C141.209 11.1956 126.827 -0.456044 126.21 0.0137443ZM103.863 36.6483C106.907 40.0401 112.407 45.9786 115.162 48.8502C116.992 50.757 117.113 50.3951 113.711 53.1933C110.383 55.9304 105.159 60.3581 102.576 62.6306C100.472 64.4826 100.762 64.4527 99.0893 62.9895C96.3343 60.5789 89.8809 55.1117 87.2708 52.9768C84.0328 50.3284 83.9978 51.0395 87.5506 47.3033C90.531 44.1693 95.9599 38.2649 98.8647 34.9985C100.8 32.8228 100.273 32.6489 103.863 36.6483ZM104.655 67.9575C109.459 72.2439 124.96 87.057 129.26 91.4707C131.029 93.2855 132.765 95.0613 133.119 95.417L133.763 96.0636L132.482 97.4003C125.634 104.548 112.704 116.989 104.372 124.45C102.337 126.272 100.689 127.805 100.709 127.857C100.795 128.081 109.266 135.325 113.783 139.037C117.193 141.841 117.183 141.194 113.87 144.678C110.625 148.09 106.034 153.074 103.043 156.433C100.794 158.959 100.685 159.068 100.502 158.959C100.439 158.922 99.048 157.395 97.4107 155.566C94.393 152.194 88.8938 146.257 86.1155 143.372C84.2528 141.437 84.248 141.648 86.1906 140.071C90.659 136.442 100.53 128.018 100.53 127.834C100.53 127.785 98.6068 126.019 96.2563 123.91C93.9057 121.8 88.4218 116.67 84.07 112.509C76.8777 105.633 74.2812 103.076 69.1585 97.8249L67.4529 96.0765L69.3022 94.1903C78.883 84.4196 87.8246 75.8541 98.3753 66.3399C100.889 64.0734 100.065 63.861 104.655 67.9575ZM55.7212 83.4622C58.3965 86.4414 62.8157 91.2206 65.6226 94.1707C67.6483 96.2994 67.5619 95.9856 66.4391 97.1394C63.9012 99.7472 57.1674 107.036 54.3696 110.203C53.051 111.696 53.1665 111.667 52.1368 110.764C47.7562 106.92 41.5975 101.698 37.3557 98.2319C34.3648 95.7876 34.2349 96.4917 38.2895 93.171C41.9766 90.151 48.2248 84.8472 51.1111 82.2871C53.3236 80.3246 52.7789 80.1856 55.7212 83.4622ZM149.949 82.1438C152.873 84.7218 159.115 90.0194 162.779 93.0315C164.739 94.6428 166.323 96.0363 166.299 96.1282C166.274 96.22 164.606 97.6496 162.591 99.3049C158.736 102.473 154.247 106.275 150.524 109.528C147.815 111.894 148.519 112.051 145.185 108.339C142.174 104.986 138.495 101.012 135.623 98.0079C134.651 96.9906 133.872 96.1128 133.893 96.057C133.914 96.0013 135.265 94.5443 136.896 92.8196C140.17 89.3562 144.577 84.5585 146.647 82.2031C148.259 80.3685 147.942 80.3741 149.949 82.1438Z" fill="black"/>
</svg>














