<svg width="26" height="26" viewBox="0 0 26 26" fill="none" xmlns="http://www.w3.org/2000/svg">
<path fill-rule="evenodd" clip-rule="evenodd" d="M12.1284 0.0126348C10.5966 0.12488 9.24984 0.451077 7.82646 1.05457C7.57814 1.15985 6.71828 1.59362 6.47985 1.73386C5.88094 2.08617 5.11628 2.62953 4.59678 3.07198C4.20431 3.40624 3.33881 4.27606 3.03619 4.64031C2.41739 5.38516 1.81665 6.29505 1.41849 7.09041C1.35172 7.22377 1.287 7.3367 1.27465 7.34137C1.26232 7.34607 1.2522 7.3634 1.2522 7.37988C1.2522 7.3964 1.16752 7.60575 1.06399 7.84515C0.856269 8.32547 0.58878 9.09185 0.449737 9.60489C0.0941915 10.917 -0.0690287 12.5484 0.0272235 13.8282C0.208724 16.2418 0.929773 18.3533 2.23229 20.2853C3.17822 21.6884 4.40894 22.906 5.86056 23.875C7.50482 24.9725 9.46384 25.6859 11.5019 25.9292C12.0602 25.9958 13.3354 26.0219 13.9412 25.9791C16.3955 25.8055 18.7284 24.9471 20.7069 23.4897C23.3071 21.5743 25.1097 18.7556 25.7493 15.6052C25.94 14.6654 26.0008 14.0302 26 12.986C25.9994 12.224 25.9919 12.0674 25.931 11.5466C25.6551 9.18898 24.8065 7.0468 23.4125 5.18903C22.5287 4.01114 21.3398 2.89279 20.1535 2.1234C19.4601 1.67368 19.1134 1.48117 18.4346 1.16886C17.0335 0.524197 15.5362 0.13662 14.005 0.022231C13.6826 -0.00186174 12.4148 -0.00834431 12.1284 0.0126348ZM14.131 2.20273C15.1045 2.30665 16.1237 2.56006 17.0367 2.92523L17.3367 3.04518L17.3367 3.2796C17.3369 4.19247 16.7337 5.00568 15.8305 5.31033L15.5879 5.39213L12.7029 5.40844C9.96257 5.42396 9.46732 5.43677 8.80941 5.5092C7.31545 5.67366 6.14268 5.90112 4.85461 6.27616C4.66645 6.33096 4.49618 6.3758 4.47629 6.3758C4.42814 6.3758 4.49493 6.2807 4.77205 5.95469C5.33263 5.29517 6.2719 4.44828 6.86904 4.06392C6.93223 4.02326 6.98968 3.98396 6.9967 3.97658C7.00372 3.96923 7.10138 3.90438 7.21371 3.83248C8.0049 3.32608 8.87244 2.92171 9.77959 2.63652C10.6192 2.3726 11.3941 2.23504 12.4986 2.15385C12.7556 2.13497 13.785 2.16577 14.131 2.20273ZM19.5576 4.36166C20.1013 4.77603 21.1154 5.73137 21.1154 5.82922C21.1154 5.95242 20.7023 6.68676 20.4068 7.08886C19.3921 8.46949 17.8725 9.40145 16.2007 9.66847C15.7721 9.73692 15.4788 9.74404 13.0348 9.74552C9.97863 9.74733 9.55491 9.76369 8.42644 9.92328C6.33749 10.2187 4.35898 10.8786 2.52028 11.8934C2.36817 11.9773 2.23709 12.0394 2.229 12.0313C2.20178 12.0041 2.30133 11.2671 2.38882 10.8481C2.48181 10.4028 2.63642 9.83101 2.75195 9.50533L2.82329 9.30424L3.07814 9.19103C4.80833 8.42253 6.88446 7.87248 8.78387 7.67938C9.80752 7.57531 9.94403 7.57122 12.7667 7.5601C14.4144 7.55361 15.6475 7.53855 15.7698 7.52339C15.9727 7.49828 16.3583 7.40727 16.5934 7.32902C16.6582 7.30743 16.8606 7.21769 17.0432 7.12959C18.1182 6.61081 18.9229 5.68068 19.2908 4.53181C19.356 4.32797 19.3958 4.23872 19.4149 4.25319C19.4304 4.26488 19.4946 4.3137 19.5576 4.36166ZM22.6033 7.93902C22.7955 8.2694 23.1151 9.04177 23.3084 9.64261C23.4663 10.1335 23.4778 10.1924 23.4299 10.2655C23.3629 10.3677 22.542 11.1983 22.2994 11.4093C21.1178 12.4373 19.7258 13.2078 18.2715 13.6387C17.5496 13.8525 16.8841 13.977 16.0243 14.0589C15.8852 14.0722 14.5698 14.0845 13.101 14.0864C9.93259 14.0904 9.74009 14.0987 8.65622 14.2776C6.73426 14.5949 4.76194 15.4356 3.17013 16.616C3.03652 16.7151 2.91083 16.7973 2.89082 16.7988C2.84861 16.802 2.76267 16.5645 2.59159 15.9721C2.46904 15.5477 2.29163 14.7004 2.30414 14.5991C2.31009 14.5509 2.38918 14.4881 2.66918 14.3092C4.30715 13.2625 6.08657 12.5472 7.95411 12.1847C8.4737 12.0838 8.55604 12.0715 9.16684 12.0028C9.91909 11.9182 10.1691 11.9121 13.2263 11.9036C16.0317 11.8958 16.0633 11.8944 16.8134 11.7488C17.9799 11.5222 19.1178 11.0422 20.0829 10.3696C20.9703 9.75108 21.8524 8.85077 22.3885 8.01643C22.4536 7.91513 22.5144 7.83185 22.5236 7.83139C22.5327 7.83093 22.5687 7.87937 22.6033 7.93902ZM23.8471 13.1965C23.8467 13.9091 23.7088 14.9052 23.4991 15.7102C23.4387 15.9422 23.4221 15.9769 23.3519 16.0194C23.3084 16.0457 23.1923 16.1167 23.094 16.1772C21.271 17.2995 19.149 18.0553 17.1512 18.2939C16.9092 18.3228 16.6136 18.3597 16.4943 18.376C16.347 18.396 15.2925 18.4115 13.2135 18.4241C11.5285 18.4342 10.1153 18.4489 10.0732 18.4566C10.0311 18.4643 9.88745 18.4839 9.75406 18.5001C8.23169 18.6847 6.64391 19.3661 5.43392 20.3542C5.32566 20.4426 5.22584 20.515 5.21208 20.515C5.13847 20.515 4.37215 19.5794 4.04132 19.0857C3.89914 18.8736 3.86784 18.8103 3.891 18.7819C3.94162 18.7197 4.57301 18.2437 4.83932 18.067C5.77733 17.4447 6.77884 16.9773 7.81369 16.6791C8.41666 16.5053 8.8594 16.4157 9.62405 16.3127C9.9689 16.2663 10.4703 16.2575 13.6986 16.242C16.0596 16.2306 16.2493 16.2231 17.0304 16.1105C18.8916 15.8423 20.6839 15.1576 22.3026 14.0967C22.6257 13.8849 23.2514 13.4141 23.5536 13.1555C23.694 13.0353 23.8175 12.9366 23.8281 12.936C23.8386 12.9354 23.8471 13.0527 23.8471 13.1965ZM21.8558 19.2564C21.8558 19.2811 21.5242 19.7141 21.2834 20.0037C21.0232 20.3168 20.2784 21.0606 19.9684 21.3171C18.2371 22.7494 16.2524 23.5812 14.0177 23.811C13.5594 23.8581 12.3371 23.8505 11.8885 23.7977C10.7539 23.6642 9.76455 23.4095 8.78387 22.9984C8.55335 22.9018 7.93742 22.6003 7.74029 22.4876C7.33522 22.2561 6.89427 21.974 6.89498 21.9468C6.89641 21.8947 7.61675 21.4394 7.99456 21.2519C8.57511 20.9638 9.08598 20.7996 9.82743 20.6627C10.1162 20.6095 10.2063 20.6075 13.1369 20.5898C14.7939 20.5797 16.2013 20.5648 16.2645 20.5565C16.3277 20.5483 16.5345 20.529 16.724 20.5135C17.4524 20.4543 18.462 20.2855 19.2308 20.0943C19.6336 19.9941 20.3128 19.8072 20.3878 19.7759C20.4158 19.7642 20.5939 19.7017 20.7835 19.637C20.973 19.5723 21.2833 19.4573 21.4728 19.3815C21.8405 19.2343 21.8558 19.2293 21.8558 19.2564Z" fill="black"/>
</svg>
