<svg width="18" height="18" viewBox="0 0 18 18" fill="none" xmlns="http://www.w3.org/2000/svg">
<g clip-path="url(#clip0_106_2071)">
<path d="M8.31388 16.454C8.31406 16.5087 8.3356 16.5611 8.3739 16.6001C8.4122 16.6391 8.46422 16.6616 8.51887 16.6627L9.47845 16.6837L9.4808 16.6837C9.53626 16.684 9.58957 16.6623 9.62902 16.6233C9.66848 16.5843 9.69086 16.5312 9.69125 16.4758L9.71396 14.2881L8.30837 14.2875L8.31388 16.454ZM11.6983 3.71943L9.01582 3.71884L6.33803 3.71942C6.25834 3.71909 6.17938 3.73458 6.10572 3.76501C6.03207 3.79545 5.9652 3.84021 5.90899 3.8967L5.90781 3.89552C5.79472 4.00789 5.73085 4.16055 5.73023 4.31998C5.72961 4.4794 5.79229 4.63256 5.9045 4.74581L5.90509 4.74639L5.90391 4.74757L6.56821 5.42656L6.56547 10.3244L4.7983 12.1158L4.80064 12.1182C4.70835 12.1989 4.64294 12.3058 4.61319 12.4248C4.58344 12.5437 4.59078 12.6689 4.63422 12.7835C4.67766 12.8981 4.75512 12.9967 4.85621 13.066C4.9573 13.1354 5.07718 13.1721 5.19976 13.1714L9.01342 13.1742L12.8277 13.1765C12.9869 13.1776 13.1401 13.1154 13.2535 13.0036C13.3669 12.8918 13.4314 12.7396 13.4326 12.5803L13.4326 12.5768C13.433 12.4908 13.415 12.4057 13.3798 12.3272C13.3445 12.2487 13.2929 12.1787 13.2283 12.1219L13.2295 12.1207L11.4621 10.3271L11.4654 5.42989L12.1297 4.75324L12.1286 4.74854C12.2123 4.66385 12.269 4.55629 12.2917 4.43941C12.3143 4.32253 12.3019 4.20156 12.256 4.09172C12.2101 3.98188 12.1326 3.88809 12.0335 3.82216C11.9344 3.75622 11.8179 3.72109 11.6989 3.72119L11.6983 3.71943Z" fill="#0E61F6"/>
</g>
<defs>
<clipPath id="clip0_106_2071">
<rect width="11.6343" height="11.6343" fill="white" transform="translate(0.789062 9.01074) rotate(-44.9748)"/>
</clipPath>
</defs>
</svg>
