<svg width="14" height="14" viewBox="0 0 14 14" fill="none" xmlns="http://www.w3.org/2000/svg">
<path d="M0.497396 6.07552C0.497396 8.9401 2.82812 11.2708 5.69271 11.2708C6.82552 11.2708 7.86068 10.9063 8.71354 10.2943L11.9167 13.5039C12.0664 13.6536 12.2617 13.7253 12.4701 13.7253C12.9128 13.7253 13.2187 13.3932 13.2187 12.957C13.2187 12.7487 13.1406 12.5599 13.0039 12.4232L9.82031 9.22005C10.4909 8.34766 10.888 7.26042 10.888 6.07552C10.888 3.21094 8.55729 0.880209 5.69271 0.880209C2.82812 0.880209 0.497396 3.21094 0.497396 6.07552ZM1.61068 6.07552C1.61068 3.82292 3.4401 1.99349 5.69271 1.99349C7.94531 1.99349 9.77474 3.82292 9.77474 6.07552C9.77474 8.32813 7.94531 10.1576 5.69271 10.1576C3.4401 10.1576 1.61068 8.32813 1.61068 6.07552Z" fill="#757575"/>
</svg>
