<svg width="24" height="24" viewBox="0 0 24 24" fill="none" xmlns="http://www.w3.org/2000/svg">
<path d="M21.0019 13.1516C21.052 12.7751 21.0854 12.3815 21.0856 11.9878C21.0858 11.5942 21.0526 11.2006 21.0028 10.8069L23.4693 8.82254C23.6859 8.63436 23.7527 8.3092 23.6029 8.05243L21.272 3.9098C21.1221 3.65302 20.8223 3.55022 20.5557 3.65281L17.6563 4.84974C17.0552 4.36772 16.3942 3.97032 15.6908 3.66809L15.2588 0.501712C15.2309 0.363281 15.158 0.238717 15.0521 0.148482C14.9461 0.0582475 14.8135 0.00770799 14.6759 0.00516641L10.0109 0.0034041C9.7277 0.00329711 9.4777 0.225693 9.42761 0.516624L8.99322 3.68267C8.29336 3.99047 7.62679 4.38386 7.02682 4.86284L4.12835 3.66372C3.86182 3.56093 3.56189 3.6635 3.41184 3.92017L1.07778 8.06103C0.927732 8.3177 0.99425 8.6429 1.21077 8.83124L3.67577 10.8175C3.62564 11.194 3.59217 11.5876 3.59202 11.9812C3.59187 12.3749 3.62504 12.7685 3.67487 13.1622L1.20834 15.1466C0.991683 15.3347 0.924916 15.6599 1.07476 15.9167L3.40565 20.0593C3.5555 20.3161 3.85535 20.4189 4.12196 20.3163L7.02135 19.1193C7.62095 19.5988 8.27056 19.9927 8.98685 20.301L9.41881 23.4674C9.46868 23.7412 9.71851 23.9638 10.0017 23.9639L14.6667 23.9657C14.9499 23.9658 15.1999 23.7434 15.25 23.4525L15.6844 20.2864C16.3843 19.9786 17.0508 19.5852 17.6508 19.1062L20.5493 20.3054C20.8158 20.4082 21.1157 20.3056 21.2658 20.0489L23.5998 15.9081C23.7499 15.6514 23.6834 15.3262 23.4669 15.1378L21.0019 13.1516ZM12.3375 15.4075C10.5048 15.4068 9.00598 13.8659 9.0067 11.9833C9.00742 10.1007 10.5075 8.56092 12.3401 8.56161C14.1728 8.56231 15.6716 10.1032 15.6709 11.9858C15.6702 13.8684 14.1702 15.4082 12.3375 15.4075Z" fill="#B4B0A8"/>
</svg>
