<svg width="29" height="21" viewBox="0 0 29 21" fill="none" xmlns="http://www.w3.org/2000/svg">
<path fill-rule="evenodd" clip-rule="evenodd" d="M22.7381 0.0855128C22.7179 0.10443 22.6993 1.03241 22.6967 2.14768C22.6932 3.65567 22.6751 4.19129 22.6261 4.2374C22.5758 4.2848 21.3054 4.29648 17.2422 4.28696C13.1789 4.27743 11.9085 4.28912 11.8582 4.33652C11.7644 4.42485 11.7582 7.07687 11.8516 7.16564C11.9017 7.21327 13.172 7.23091 17.2352 7.24044C21.2985 7.24996 22.5688 7.2676 22.6189 7.31524C22.6677 7.36162 22.6832 7.89956 22.6797 9.41552C22.6754 11.2363 22.6843 11.4569 22.7625 11.4855C22.8473 11.5166 28.688 6.09184 28.8312 5.84911C28.8888 5.75137 22.9938 0.051551 22.8347 0.0511781C22.8017 0.0511007 22.7582 0.0665435 22.7381 0.0855128ZM3.92382 11.7096C1.29604 14.1859 0.920154 14.5594 0.96974 14.6443C1.11179 14.8877 6.92703 20.3397 7.01194 20.3091C7.09033 20.2809 7.10021 20.0603 7.10448 18.2395C7.10803 16.7235 7.12611 16.1857 7.17512 16.1395C7.22546 16.0921 8.49581 16.0804 12.5591 16.09C16.6224 16.0995 17.8927 16.0878 17.943 16.0404C18.0368 15.9521 18.0431 13.3001 17.9497 13.2113C17.8996 13.1637 16.6283 13.146 12.5617 13.1365C8.18343 13.1262 7.22867 13.1117 7.17874 13.0545C7.13712 13.0068 7.11506 12.3453 7.10854 10.9435C7.09672 8.41833 7.52597 8.31509 3.92382 11.7096Z" fill="#B4B0A8"/>
</svg>
