<svg width="33" height="34" viewBox="0 0 33 34" fill="none" xmlns="http://www.w3.org/2000/svg">
<path d="M32.4106 21.1409C30.2104 29.9649 21.2834 35.3321 12.4713 33.1281C3.66301 30.9248 -1.69627 21.984 0.50491 13.1608C2.70416 4.33579 11.6312 -1.03186 20.4405 1.17154C29.2518 3.37494 34.6108 12.3166 32.4103 21.141L32.4105 21.1409L32.4106 21.1409Z" fill="#50AF95"/>
<path fill-rule="evenodd" clip-rule="evenodd" d="M18.54 19.018C18.4237 19.0267 17.8228 19.0624 16.4824 19.0619C15.4162 19.0615 14.6593 19.0291 14.3937 19.0164C10.2736 18.8334 7.19859 18.1139 7.19892 17.2539C7.19925 16.3939 10.2749 15.6778 14.3951 15.4949L14.394 18.301C14.6634 18.3206 15.4349 18.3665 16.5011 18.3669C17.7804 18.3674 18.4211 18.3142 18.5364 18.3036L18.5375 15.4984C22.6489 15.6834 25.7171 16.4029 25.7168 17.2609C25.7165 18.119 22.6486 18.8361 18.5362 19.017L18.54 19.018ZM18.5415 15.2082L18.5424 12.6971L24.2802 12.6993L24.2817 8.8701L8.65979 8.8642L8.65832 12.6934L14.3951 12.6956L14.3942 15.2057C9.73117 15.4184 6.22418 16.3421 6.22376 17.4506C6.22333 18.5591 9.72961 19.4845 14.3924 19.7017L14.3894 27.7484L18.5357 27.75L18.5388 19.7004C23.1911 19.4876 26.6923 18.5649 26.6927 17.4574C26.6931 16.3499 23.1956 15.4245 18.5405 15.2072L18.5415 15.2082Z" fill="white"/>
</svg>

