<svg width="18" height="16" viewBox="0 0 18 16" fill="none" xmlns="http://www.w3.org/2000/svg">
<path fill-rule="evenodd" clip-rule="evenodd" d="M1.10957 1.03002C1.10957 1.03002 3.62571 4.61331 8.95757 4.95402C8.95757 4.95402 8.40343 2.01102 10.8771 0.688022C13.3509 -0.633693 15.228 1.49802 15.228 1.49802C15.228 1.49802 16.3376 1.41316 17.4883 0.55945C17.4883 0.55945 17.7017 1.32702 16.038 2.60631C16.038 2.60631 16.9341 2.52145 18 2.09459C18 2.09459 17.6593 3.16045 16.2514 4.01417C16.2514 4.01417 16.9341 8.49231 12.4123 12.7583C7.89043 17.0256 0.896143 14.5095 0 13.6557C0 13.6557 3.36986 13.7843 5.28943 11.9496C5.28943 11.9496 3.114 11.8647 2.00571 9.43345C2.00571 9.43345 2.90057 9.56202 3.71186 9.26245C3.71186 9.26245 0.939857 8.57974 0.684 5.72288C0.684 5.72288 1.23814 6.06359 2.17671 5.89388C2.17543 5.89259 -0.255857 4.22888 1.10957 1.03002Z" fill="#00AAEC"/>
</svg>

