<svg width="34" height="35" viewBox="0 0 34 35" fill="none" xmlns="http://www.w3.org/2000/svg">
<circle opacity="0.15" cx="17" cy="17.5" r="17" fill="#00AAEC"/>
<path fill-rule="evenodd" clip-rule="evenodd" d="M10.1096 11.03C10.1096 11.03 12.6257 14.6133 17.9576 14.954C17.9576 14.954 17.4034 12.011 19.8771 10.688C22.3509 9.36631 24.228 11.498 24.228 11.498C24.228 11.498 25.3376 11.4132 26.4883 10.5595C26.4883 10.5595 26.7017 11.327 25.038 12.6063C25.038 12.6063 25.9341 12.5215 27 12.0946C27 12.0946 26.6593 13.1605 25.2514 14.0142C25.2514 14.0142 25.9341 18.4923 21.4123 22.7583C16.8904 27.0256 9.89614 24.5095 9 23.6557C9 23.6557 12.3699 23.7843 14.2894 21.9496C14.2894 21.9496 12.114 21.8647 11.0057 19.4335C11.0057 19.4335 11.9006 19.562 12.7119 19.2625C12.7119 19.2625 9.93986 18.5797 9.684 15.7229C9.684 15.7229 10.2381 16.0636 11.1767 15.8939C11.1754 15.8926 8.74414 14.2289 10.1096 11.03Z" fill="#00AAEC"/>
</svg>



