<svg width="33" height="34" viewBox="0 0 33 34" fill="none" xmlns="http://www.w3.org/2000/svg">
<path d="M16.4773 33.5027C25.6061 33.5062 32.953 26.1648 32.9565 17.0361C32.96 7.90732 25.6187 0.560453 16.4899 0.557004C7.36118 0.553556 0.0142729 7.89488 0.0107714 17.0236C0.00726993 26.1524 7.34855 33.4993 16.4773 33.5027Z" fill="#2775CA"/>
<path d="M21.0126 19.6395C21.0135 17.2373 19.5724 16.4131 16.6898 16.0689C14.6308 15.7935 14.2192 15.2443 14.2196 14.2833C14.2199 13.3223 14.9066 12.705 16.2793 12.7055C17.5148 12.7059 18.201 13.118 18.5438 14.1477C18.6124 14.3536 18.8182 14.4909 19.0241 14.491L20.1222 14.4914C20.3968 14.4915 20.6028 14.2857 20.6029 14.0113L20.6029 13.9426C20.3289 12.4324 19.0939 11.2652 17.5154 11.1274L17.516 9.48007C17.5161 9.20547 17.3103 8.99948 16.9672 8.93066L15.9376 8.93027C15.663 8.93016 15.457 9.136 15.3882 9.47926L15.3876 11.0579C13.3284 11.3317 12.0239 12.7039 12.0232 14.4199C12.0223 16.6849 13.3947 17.5776 16.2773 17.9219C18.199 18.2658 18.8166 18.6779 18.8162 19.7761C18.8158 20.8743 17.8545 21.6289 16.5505 21.6284C14.7658 21.6278 14.1484 20.8724 13.9428 19.8428C13.8744 19.5683 13.6686 19.4309 13.4627 19.4308L12.2957 19.4303C12.0213 19.4302 11.8153 19.6361 11.8152 19.9107L11.8152 19.9794C12.0889 21.6953 13.1867 22.9312 15.4516 23.2753L15.451 24.9226C15.4509 25.197 15.6567 25.403 15.9998 25.4718L17.0293 25.4722C17.3039 25.4723 17.5099 25.2665 17.5788 24.9234L17.5794 23.2761C19.6386 22.9336 21.0119 21.4927 21.0126 19.6395Z" fill="white"/>
<path fill-rule="evenodd" clip-rule="evenodd" d="M6.8765 13.6634C4.8839 18.9478 7.62714 24.9203 12.9801 26.844C13.1859 26.9815 13.3917 27.256 13.3917 27.4619L13.3913 28.4229C13.3912 28.5602 13.3912 28.6288 13.3225 28.6973C13.2539 28.9719 12.9792 29.109 12.7047 28.9717C8.86152 27.7348 5.91121 24.7822 4.67722 20.9382C2.62062 14.4169 6.19245 7.48585 12.7137 5.4292C12.7824 5.3607 12.9196 5.36075 12.9883 5.36078C13.2629 5.42941 13.4 5.63537 13.3999 5.90998L13.3996 6.87084C13.3994 7.21413 13.2621 7.41999 12.9875 7.55711C10.173 8.5856 7.90716 10.7811 6.8765 13.6634ZM19.646 5.70633C19.7146 5.43175 19.9893 5.29464 20.2639 5.43196C24.0383 6.66885 27.0573 9.62144 28.2913 13.5342C30.3479 20.0554 26.776 26.9865 20.2548 29.0432C20.1861 29.1117 20.0489 29.1116 19.9802 29.1116C19.7056 29.043 19.5685 28.837 19.5686 28.5624L19.5689 27.6015C19.5691 27.2582 19.7064 27.0524 19.981 26.9153C22.7955 25.8868 25.0613 23.6913 26.092 20.8089C28.0846 15.5245 25.3413 9.5521 19.9884 7.62835C19.7825 7.49089 19.5767 7.21637 19.5768 6.94177L19.5772 5.98091C19.5773 5.84352 19.5773 5.775 19.646 5.70633Z" fill="white"/>
</svg>
