<svg width="28" height="26" viewBox="0 0 28 26" fill="none" xmlns="http://www.w3.org/2000/svg">
    <path fill-rule="evenodd" clip-rule="evenodd" d="M22.08 8.27047H28C28 3.51047 25.16 0.730469 20.32 0.730469H7.68C2.84 0.730469 0 3.51047 0 8.21047V18.4705C0 23.1705 2.84 25.9505 7.68 25.9505H20.32C25.14 25.9505 28 23.1705 28 18.4705V18.0105H22.08C19.34 18.0105 17.1 15.8305 17.1 13.1505C17.1 10.4905 19.32 8.27047 22.08 8.27047ZM22.08 10.3505H26.96C27.54 10.3505 28 10.8105 28 11.3705V14.9105C28 15.4705 27.52 15.9305 26.96 15.9305H22.2C20.8 15.9505 19.6 15.0105 19.28 13.6905C19.12 12.8705 19.34 12.0305 19.88 11.3705C20.42 10.7505 21.22 10.3705 22.08 10.3505ZM22.28 14.0705H22.74C23.34 14.0705 23.82 13.6105 23.82 13.0305C23.82 12.4505 23.34 11.9905 22.74 11.9905H22.28C22 11.9905 21.72 12.0905 21.52 12.2905C21.32 12.4905 21.2 12.7505 21.2 13.0305C21.22 13.5905 21.7 14.0705 22.28 14.0705ZM6.64 8.27047H14.54C15.14 8.27047 15.62 7.81047 15.62 7.23047C15.62 6.65047 15.14 6.19047 14.54 6.19047H6.64C6.06 6.19047 5.58 6.65047 5.56 7.23047C5.56 7.79047 6.04 8.25047 6.64 8.27047Z" fill="#B4B0A8"/>
</svg>
